<svg xmlns="http://www.w3.org/2000/svg" width="1000" height="416" viewBox="0 0 1000 416" role="img" aria-roledescription="nomogram" aria-labelledby="nomogram-ea212aea494a-title nomogram-ea212aea494a-description" focusable="false"><title id="nomogram-ea212aea494a-title">Nomogram renderer assurance</title><desc id="nomogram-ea212aea494a-description">Nomogram for a ols model with 2 predictor axes, a shared points scale, total points, and one predicted outcome axis.</desc><metadata>holocron-nomogram-geometry/v1 sha256:ea212aea494adf26169f2d480db0422e57b62da5603c4d349572ca0e9b01b19e</metadata><rect width="100%" height="100%" fill="#FFFFFF" /><text x="24" y="30" font-size="19" font-weight="600" fill="#111111">Nomogram renderer assurance</text><g role="group" aria-label="Points"><text x="134" y="68" text-anchor="end" font-size="12" font-weight="600" fill="#111111">Points</text><line x1="150" x2="960" y1="64" y2="64" stroke="#222222" stroke-width="1.4" /><line x1="150" x2="150" y1="59" y2="69" stroke="#222222" /><text x="150" y="83" text-anchor="middle" font-size="10" fill="#222222">0</text><line x1="312" x2="312" y1="59" y2="69" stroke="#222222" /><text x="312" y="83" text-anchor="middle" font-size="10" fill="#222222">20</text><line x1="474" x2="474" y1="59" y2="69" stroke="#222222" /><text x="474" y="83" text-anchor="middle" font-size="10" fill="#222222">40</text><line x1="636" x2="636" y1="59" y2="69" stroke="#222222" /><text x="636" y="83" text-anchor="middle" font-size="10" fill="#222222">60</text><line x1="798" x2="798" y1="59" y2="69" stroke="#222222" /><text x="798" y="83" text-anchor="middle" font-size="10" fill="#222222">80</text><line x1="960" x2="960" y1="59" y2="69" stroke="#222222" /><text x="960" y="83" text-anchor="middle" font-size="10" fill="#222222">100</text></g><g role="group" aria-label="Dose level (mg)"><text x="134" y="146" text-anchor="end" font-size="12" font-weight="600" fill="#111111">Dose level (mg)</text><line x1="150" x2="960" y1="142" y2="142" stroke="#222222" stroke-width="1.4" /><line x1="150" x2="150" y1="137" y2="147" stroke="#222222" /><text x="150" y="161" text-anchor="middle" font-size="10" fill="#222222">0</text><line x1="265.714" x2="265.714" y1="137" y2="147" stroke="#222222" /><text x="265.714" y="161" text-anchor="middle" font-size="10" fill="#222222">1</text><line x1="381.429" x2="381.429" y1="137" y2="147" stroke="#222222" /><text x="381.429" y="161" text-anchor="middle" font-size="10" fill="#222222">2</text><line x1="497.143" x2="497.143" y1="137" y2="147" stroke="#222222" /><text x="497.143" y="161" text-anchor="middle" font-size="10" fill="#222222">3</text><line x1="612.857" x2="612.857" y1="137" y2="147" stroke="#222222" /><text x="612.857" y="161" text-anchor="middle" font-size="10" fill="#222222">4</text><line x1="728.571" x2="728.571" y1="137" y2="147" stroke="#222222" /><text x="728.571" y="161" text-anchor="middle" font-size="10" fill="#222222">5</text><line x1="844.286" x2="844.286" y1="137" y2="147" stroke="#222222" /><text x="844.286" y="161" text-anchor="middle" font-size="10" fill="#222222">6</text><line x1="960" x2="960" y1="137" y2="147" stroke="#222222" /><text x="960" y="161" text-anchor="middle" font-size="10" fill="#222222">7</text></g><g role="group" aria-label="Treatment group"><text x="134" y="224" text-anchor="end" font-size="12" font-weight="600" fill="#111111">Treatment group</text><line x1="150" x2="960" y1="220" y2="220" stroke="#222222" stroke-width="1.4" /><line x1="150" x2="150" y1="215" y2="225" stroke="#222222" /><text x="150" y="239" text-anchor="middle" font-size="10" fill="#222222">A</text><line x1="265.714" x2="265.714" y1="215" y2="225" stroke="#222222" /><text x="265.714" y="239" text-anchor="middle" font-size="10" fill="#222222">B</text></g><g role="group" aria-label="Total points"><text x="134" y="306" text-anchor="end" font-size="12" font-weight="600" fill="#111111">Total points</text><line x1="150" x2="960" y1="302" y2="302" stroke="#222222" stroke-width="1.4" /><line x1="150" x2="150" y1="297" y2="307" stroke="#222222" /><text x="150" y="321" text-anchor="middle" font-size="10" fill="#222222">0</text><line x1="312" x2="312" y1="297" y2="307" stroke="#222222" /><text x="312" y="321" text-anchor="middle" font-size="10" fill="#222222">22.8571</text><line x1="474" x2="474" y1="297" y2="307" stroke="#222222" /><text x="474" y="321" text-anchor="middle" font-size="10" fill="#222222">45.7143</text><line x1="636" x2="636" y1="297" y2="307" stroke="#222222" /><text x="636" y="321" text-anchor="middle" font-size="10" fill="#222222">68.5714</text><line x1="798" x2="798" y1="297" y2="307" stroke="#222222" /><text x="798" y="321" text-anchor="middle" font-size="10" fill="#222222">91.4286</text><line x1="960" x2="960" y1="297" y2="307" stroke="#222222" /><text x="960" y="321" text-anchor="middle" font-size="10" fill="#222222">114.286</text></g><g role="group" aria-label="Predicted value"><text x="134" y="376" text-anchor="end" font-size="12" font-weight="600" fill="#111111">Predicted value</text><line x1="150" x2="960" y1="372" y2="372" stroke="#222222" stroke-width="1.4" /><line x1="150" x2="150" y1="367" y2="377" stroke="#222222" /><text x="150" y="391" text-anchor="middle" font-size="10" fill="#222222">1</text><line x1="312" x2="312" y1="367" y2="377" stroke="#222222" /><text x="312" y="391" text-anchor="middle" font-size="10" fill="#222222">2.6</text><line x1="474" x2="474" y1="367" y2="377" stroke="#222222" /><text x="474" y="391" text-anchor="middle" font-size="10" fill="#222222">4.2</text><line x1="636" x2="636" y1="367" y2="377" stroke="#222222" /><text x="636" y="391" text-anchor="middle" font-size="10" fill="#222222">5.8</text><line x1="798" x2="798" y1="367" y2="377" stroke="#222222" /><text x="798" y="391" text-anchor="middle" font-size="10" fill="#222222">7.4</text><line x1="960" x2="960" y1="367" y2="377" stroke="#222222" /><text x="960" y="391" text-anchor="middle" font-size="10" fill="#222222">9</text></g></svg>
