<svg xmlns="http://www.w3.org/2000/svg" width="800" height="520" viewBox="0 0 800 520" role="img" aria-roledescription="chart" aria-labelledby="assurance-categorical-horizontal-title assurance-categorical-horizontal-description" focusable="false"><title id="assurance-categorical-horizontal-title">Categorical horizontal assurance</title><desc id="assurance-categorical-horizontal-description">Bars and intervals rendered in the horizontal orientation.</desc><metadata>holocron-plot-spec/v1 sha256:045249d22bbc936efa4860e2d5ab64042bcdeb4942cf58bc5488fa99bc6569ee</metadata><rect width="100%" height="100%" fill="#FFFFFF" /><text x="70" y="28" font-size="18" font-weight="600" fill="#111111">Categorical horizontal assurance</text><g aria-hidden="true"><line x1="101" x2="610" y1="468" y2="468" stroke="#333333" /><line x1="101" x2="101" y1="48" y2="468" stroke="#333333" /><line x1="101" x2="101" y1="48" y2="468" stroke="#E6E6E6" /><text x="101" y="486" text-anchor="middle" font-size="11" fill="#333333">-0.5</text><line x1="228.25" x2="228.25" y1="48" y2="468" stroke="#E6E6E6" /><text x="228.25" y="486" text-anchor="middle" font-size="11" fill="#333333">0.25</text><line x1="355.5" x2="355.5" y1="48" y2="468" stroke="#E6E6E6" /><text x="355.5" y="486" text-anchor="middle" font-size="11" fill="#333333">1</text><line x1="482.75" x2="482.75" y1="48" y2="468" stroke="#E6E6E6" /><text x="482.75" y="486" text-anchor="middle" font-size="11" fill="#333333">1.75</text><line x1="610" x2="610" y1="48" y2="468" stroke="#E6E6E6" /><text x="610" y="486" text-anchor="middle" font-size="11" fill="#333333">2.5</text><text x="93" y="122" text-anchor="end" font-size="11" fill="#333333">Control</text><text x="93" y="262" text-anchor="end" font-size="11" fill="#333333">Treatment A</text><text x="93" y="402" text-anchor="end" font-size="11" fill="#333333">Treatment B</text><text x="355.5" y="504" text-anchor="middle" font-size="12" fill="#111111">Effect</text><text x="-258" y="16" text-anchor="middle" font-size="12" fill="#111111" transform="rotate(-90)">Group</text></g><g role="group" aria-label="Plot data"><g data-layer-id="bars" data-role="estimate" role="group" aria-label="Estimate"><rect x="185.833" y="75.664" width="33.933" height="84.672" fill="#005A8C" fill-opacity="0.78" stroke="#005A8C" stroke-width="1" stroke-dasharray="none" /><rect x="185.833" y="215.664" width="169.667" height="84.672" fill="#005A8C" fill-opacity="0.78" stroke="#005A8C" stroke-width="1" stroke-dasharray="none" /><rect x="185.833" y="355.664" width="288.433" height="84.672" fill="#005A8C" fill-opacity="0.78" stroke="#005A8C" stroke-width="1" stroke-dasharray="none" /></g><g data-layer-id="intervals" data-role="comparison" role="group" aria-label="Comparison interval"><line x1="168.867" x2="270.667" y1="118" y2="118" stroke="#A63F00" stroke-width="2" stroke-dasharray="8 3" /><circle cx="219.767" cy="118" r="4" fill="#A63F00" /><line x1="287.633" x2="423.367" y1="258" y2="258" stroke="#A63F00" stroke-width="2" stroke-dasharray="8 3" /><circle cx="355.5" cy="258" r="4" fill="#A63F00" /><line x1="389.433" x2="559.1" y1="398" y2="398" stroke="#A63F00" stroke-width="2" stroke-dasharray="8 3" /><circle cx="474.267" cy="398" r="4" fill="#A63F00" /></g><line x1="185.833" x2="185.833" y1="48" y2="468" stroke="#4D4D4D" stroke-width="1.25" stroke-dasharray="5 4" data-role="reference" /></g><g role="group" aria-label="Legend"><line x1="630" x2="648" y1="52" y2="52" stroke="#005A8C" stroke-width="4" stroke-dasharray="none" /><text x="655" y="56" font-size="12" fill="#222222">Estimate</text><line x1="630" x2="648" y1="74" y2="74" stroke="#A63F00" stroke-width="4" stroke-dasharray="8 3" /><text x="655" y="78" font-size="12" fill="#222222">Comparison interval</text></g><text x="70" y="508" font-size="11" fill="#555555">Golden fixture: horizontal categorical layers.</text></svg>
